<svg xmlns="http://www.w3.org/2000/svg" aria-hidden="true" overflow="hidden" style="position:absolute;width:0;height:0">
    <defs>
        <symbol id="icon-package" viewBox="0 0 32 32">
            <path d="M25.334 9.334h-4v-1.334c0-2.946-2.388-5.334-5.334-5.334s-5.334 2.388-5.334 5.334v0 1.334h-4c-0.736 0.001-1.332 0.597-1.333 1.332v14.668c0 2.209 1.791 4 4 4v0h13.333c2.209 0 4-1.791 4-4v0-14.667c-0.001-0.736-0.597-1.332-1.332-1.333h-0zM13.334 8c0-1.473 1.194-2.666 2.666-2.666s2.666 1.194 2.666 2.666v1.334h-5.333v-1.334zM24 25.334c0 0.736-0.597 1.333-1.333 1.333-0 0-0.001 0-0.001 0h-13.332c-0.736 0-1.333-0.596-1.334-1.332v-13.334h2.666v1.334c0 0.737 0.597 1.334 1.334 1.334s1.334-0.597 1.334-1.334v0-1.334h5.333v1.334c0 0.737 0.597 1.334 1.334 1.334s1.334-0.597 1.334-1.334v0-1.334h2.666v13.334z"></path>
        </symbol>
        <symbol id="icon-menu-burger" viewBox="0 0 32 32">
            <path d="M2.667 7.993c0-0.733 0.595-1.327 1.327-1.327h10.68c0.352 0 0.689 0.14 0.938 0.389s0.389 0.586 0.389 0.938c0 0.352-0.14 0.689-0.389 0.938s-0.586 0.389-0.938 0.389h-10.68c-0.352 0-0.689-0.14-0.938-0.389s-0.389-0.586-0.389-0.938zM2.667 16c0-0.733 0.595-1.327 1.327-1.327h24.013c0.352 0 0.689 0.14 0.938 0.389s0.389 0.586 0.389 0.938c0 0.352-0.14 0.689-0.389 0.938s-0.586 0.389-0.938 0.389h-24.013c-0.352 0-0.689-0.14-0.938-0.389s-0.389-0.586-0.389-0.938zM3.993 22.68c-0.352 0-0.689 0.14-0.938 0.389s-0.389 0.586-0.389 0.938c0 0.352 0.14 0.689 0.389 0.938s0.586 0.389 0.938 0.389h16.013c0.352 0 0.689-0.14 0.938-0.389s0.389-0.586 0.389-0.938c0-0.352-0.14-0.689-0.389-0.938s-0.586-0.389-0.938-0.389h-16.013z"></path>
        </symbol>
        <symbol id="icon-arrow" viewBox="0 0 30 32">
            <path d="M29.867 4.588l-4.425-4.425v22.123l-22.123-22.123-3.319 3.319 22.124 22.123h-22.124l4.425 4.425h25.442v-25.442z"></path>
        </symbol>
    </defs>
</svg>